<svg xmlns="http://www.w3.org/2000/svg" width="34" height="35" viewBox="0 0 34 35" fill="none">
  <path d="M33.2373 3.7966H28.1889C28.3661 2.94287 28.1972 2.0537 27.7191 1.32449C27.3836 0.942147 26.8936 0.73154 26.3853 0.751272C23.9834 1.10545 21.741 2.16543 19.9428 3.7966L14.7389 3.7966C12.8869 2.13833 10.5778 1.07703 8.11332 0.751274C7.60503 0.731541 7.11496 0.942147 6.77946 1.32449C6.30142 2.0537 6.13246 2.94287 6.30971 3.7966L1.26133 3.7966C1.05938 3.79648 0.865662 3.87665 0.72286 4.01946C0.580057 4.16226 0.499883 4.35598 0.5 4.55793V10.6486C0.499883 10.8505 0.580057 11.0443 0.72286 11.1871C0.865662 11.3299 1.05938 11.41 1.26133 11.4099H2.02266V33.4885C2.02255 33.6905 2.10272 33.8842 2.24552 34.027C2.38833 34.1698 2.58204 34.25 2.78399 34.2499H31.7146C31.9165 34.25 32.1103 34.1698 32.2531 34.027C32.3959 33.8842 32.476 33.6905 32.4759 33.4885L32.4759 11.4099H33.2373C33.4392 11.41 33.6329 11.3299 33.7757 11.1871C33.9185 11.0443 33.9987 10.8505 33.9986 10.6486V4.55793C33.9987 4.35598 33.9185 4.16226 33.7757 4.01946C33.6329 3.87665 33.4392 3.79648 33.2373 3.7966Z" fill="black"/>
  <path d="M21.3154 12.47L20.5355 12.2105C20.3441 12.1464 20.1349 12.161 19.9543 12.2513C19.7737 12.3415 19.6364 12.4999 19.5727 12.6916L19.4909 12.9354L18.5334 10.3813L18.2766 9.69631C18.6292 9.56864 18.9551 9.37657 19.2376 9.12988C19.5017 9.26156 19.8522 9.43266 20.2648 9.62597L21.3154 12.47Z" fill="#E83628"/>
  <path d="M14.3011 9.69137C14.7239 9.50457 15.0844 9.33858 15.358 9.20996C15.6173 9.41853 15.9092 9.58287 16.222 9.69637L15.9653 10.3809L15.0077 12.9356L14.9259 12.6917C14.7929 12.293 14.3618 12.0776 13.9631 12.2107L13.2203 12.4582L14.3011 9.69137Z" fill="#E83628"/>
  <path d="M15.7266 15.3554L17.2067 11.4102H17.2919L18.7719 15.3554V32.7274H15.7266V15.3554Z" fill="#E83628"/>
  <path opacity="0.2" d="M17.228 11.4102H17.2067L15.7266 15.3554V32.7274H16.488V15.3554L17.228 11.4102Z" fill="white"/>
  <path opacity="0.2" d="M17.2919 11.4102H17.2706L18.0106 15.3554V32.7274H18.772V15.3554L17.2919 11.4102Z" fill="black"/>
  <path d="M2.02271 5.31934H6.51263C6.55542 5.57111 6.5815 5.82545 6.59069 6.08067L6.58401 6.54311C6.50015 7.66874 6.61292 8.80038 6.91728 9.88733H2.02271V5.31934Z" fill="white"/>
  <path d="M3.54529 11.4102H11.9945L11.2106 13.4168C11.103 13.692 11.1643 14.0045 11.3679 14.2186C11.5715 14.4328 11.8806 14.5097 12.1608 14.4161L13.7221 13.8956L14.2039 15.3396V32.7274H3.54529V11.4102Z" fill="white"/>
  <path d="M30.9533 32.7274H20.2946V15.3396L20.7764 13.8956L22.3377 14.4161C22.6155 14.5089 22.9218 14.4341 23.1256 14.2238C23.3294 14.0135 23.3946 13.7049 23.2931 13.4302L22.5472 11.4102H30.9533V32.7274Z" fill="white"/>
  <path d="M32.4759 9.88733H27.5814C27.8857 8.80038 27.9985 7.66875 27.9146 6.54312L27.9079 6.08067C27.9171 5.82545 27.9432 5.57111 27.986 5.31934L32.4759 5.31934V9.88733Z" fill="white"/>
  <path d="M26.5652 2.31778C26.847 2.64565 26.641 4.01143 26.531 4.74527C26.4527 5.18662 26.404 5.63271 26.3853 6.08056L26.3927 6.57424C26.4098 7.43892 26.447 9.2389 25.9273 9.76975C25.481 10.22 22.2046 8.88166 20.1072 7.85824C20.3699 7.16049 20.3561 6.3887 20.0684 5.70083C22.1416 3.78115 24.8781 2.27391 26.3853 2.27391C26.4487 2.26503 26.513 2.28073 26.5652 2.31778Z" fill="#E83628"/>
  <circle cx="17.25" cy="7.13088" r="1.59524" fill="#E83628"/>
  <path opacity="0.2" d="M17.5633 5.38281C18.1099 5.64547 18.3932 6.25909 18.2386 6.84548C18.084 7.43187 17.5349 7.82602 16.9299 7.78499C16.3248 7.74396 15.834 7.27931 15.76 6.67741C15.7456 6.73153 15.7345 6.78646 15.7266 6.84191C15.7266 7.68285 16.4083 8.36457 17.2493 8.36457C18.0902 8.36457 18.7719 7.68285 18.7719 6.84191C18.7648 6.13093 18.2605 5.52217 17.5633 5.38281Z" fill="black"/>
  <path d="M7.93343 2.31778C7.9856 2.28073 8.04997 2.26503 8.11335 2.27391C10.5272 2.69507 12.7515 3.85285 14.4812 5.58838C14.1326 6.33765 14.1119 7.1983 14.4242 7.96345C12.2617 8.95318 9.00916 10.2135 8.57133 9.76975C8.05163 9.2389 8.08882 7.43892 8.10592 6.57424L8.11335 6.08057C8.09458 5.63272 8.04589 5.18662 7.96763 4.74527C7.85754 4.01144 7.65165 2.64565 7.93343 2.31778Z" fill="#E83628"/>
  <path opacity="0.2" d="M26.3853 6.07902L26.3868 6.06836L26.3853 6.07445V6.07902Z" fill="white"/>
  <path opacity="0.2" d="M26.3853 4.20616C26.4461 4.20127 26.5073 4.2086 26.5652 4.22772C26.5831 4.23796 26.584 4.26536 26.5981 4.27959C26.7003 3.53759 26.7948 2.58498 26.5652 2.3178C26.513 2.28074 26.4487 2.26504 26.3853 2.2739C24.8781 2.2739 22.1415 3.78114 20.0684 5.70082C20.09 5.7538 20.0998 5.81198 20.1185 5.86634C22.0939 4.94981 24.2152 4.38786 26.3853 4.20616Z" fill="white"/>
  <path opacity="0.2" d="M25.9273 7.88403C24.0155 7.81597 22.1192 7.51452 20.2806 6.98636C20.2649 7.28379 20.2065 7.5774 20.1072 7.85819C22.2046 8.8816 25.481 10.22 25.9273 9.7697C26.4145 9.27203 26.4121 7.66861 26.3959 6.75635C26.384 7.18627 26.3021 7.69621 25.9273 7.88403Z" fill="black"/>
  <path opacity="0.2" d="M7.93339 4.2277C7.99133 4.20859 8.0525 4.20127 8.11331 4.20617C10.2894 4.3635 12.4206 4.90375 14.4088 5.80207C14.435 5.73171 14.4502 5.65644 14.4812 5.58841C12.7515 3.85287 10.5271 2.69508 8.11331 2.27391C8.04994 2.26503 7.98557 2.28073 7.93339 2.31778C7.70374 2.58496 7.79826 3.53757 7.90049 4.27956C7.91462 4.26534 7.91545 4.23793 7.93339 4.2277Z" fill="white"/>
  <path opacity="0.2" d="M8.57129 7.88389C8.19629 7.69592 8.11471 7.18539 8.1028 6.75537C8.08645 7.66745 8.08393 9.2718 8.57129 9.76956C9.00912 10.2133 12.2617 8.95294 14.4241 7.96325C14.3103 7.6681 14.2427 7.35712 14.2239 7.04133C12.3797 7.54475 10.4822 7.82758 8.57129 7.88389Z" fill="black"/>
  <path opacity="0.2" d="M8.11182 6.06836L8.11334 6.07902V6.07445L8.11182 6.06836Z" fill="white"/>
  <path opacity="0.2" d="M26.3853 3.21405C26.4472 3.20689 26.5098 3.21838 26.5652 3.24704C26.6337 3.32628 26.6748 3.42554 26.6823 3.53003C26.7645 3.12328 26.7238 2.70127 26.5652 2.31778C26.513 2.28073 26.4487 2.26503 26.3853 2.27391C24.8781 2.27391 22.1415 3.78115 20.0684 5.70083C20.0783 5.72509 20.0821 5.75222 20.0914 5.77676C21.9432 4.41177 24.1066 3.53088 26.3853 3.21405Z" fill="white"/>
  <path opacity="0.2" d="M26.3853 6.0806L26.3868 6.06689L26.3853 6.07755V6.0806Z" fill="white"/>
  <path opacity="0.2" d="M25.9273 8.85217C25.4885 9.18516 22.319 8.21835 20.2188 7.45414C20.1898 7.59095 20.1525 7.72586 20.1071 7.85813C22.2046 8.88154 25.481 10.2199 25.9272 9.76964C26.3396 8.93494 26.5034 7.99937 26.3994 7.07422C26.3907 7.74252 26.3111 8.55729 25.9273 8.85217Z" fill="black"/>
  <path opacity="0.2" d="M7.93343 3.24704C7.98878 3.21838 8.05142 3.20689 8.11334 3.21405C10.3998 3.4901 12.5791 4.34045 14.4482 5.68586C14.4614 5.65436 14.4671 5.61941 14.4812 5.58841C12.7515 3.85287 10.5272 2.69508 8.11335 2.27391C8.04997 2.26503 7.9856 2.28073 7.93343 2.31778C7.77487 2.70127 7.7341 3.12328 7.81632 3.53003C7.82383 3.42554 7.86491 3.32628 7.93343 3.24704Z" fill="white"/>
  <path opacity="0.2" d="M8.5713 8.85238C8.1872 8.55721 8.10793 7.74134 8.09928 7.07275C7.99502 7.99844 8.15886 8.93459 8.5713 9.76985C9.00913 10.2136 12.2617 8.95323 14.4241 7.96354C14.3717 7.82431 14.3291 7.68158 14.2965 7.5364C12.1358 8.27386 9.00103 9.17998 8.5713 8.85238Z" fill="black"/>
  <path opacity="0.2" d="M8.11182 6.06689L8.11334 6.0806V6.07755L8.11182 6.06689Z" fill="white"/>
  <circle opacity="0.2" cx="16.9758" cy="6.42529" r="0.5" fill="white"/>
  <path opacity="0.2" d="M13.7221 13.8956L12.1608 14.4161C11.8806 14.5097 11.5715 14.4328 11.3679 14.2186C11.1644 14.0045 11.1031 13.692 11.2107 13.4168L11.9945 11.4102H3.54529V14.4555H13.9089L13.7221 13.8956Z" fill="black"/>
  <path opacity="0.2" d="M22.5472 11.4102L23.2931 13.4302C23.3946 13.7049 23.3294 14.0135 23.1256 14.2238C22.9218 14.4341 22.6155 14.5089 22.3377 14.4161L20.7764 13.8956L20.5896 14.4555H30.9533V11.4102H22.5472Z" fill="black"/>
  <path d="M33.2373 3.7966H28.1889C28.3661 2.94287 28.1972 2.0537 27.7191 1.32449C27.3836 0.942147 26.8936 0.73154 26.3853 0.751272C23.9834 1.10545 21.741 2.16543 19.9428 3.7966L14.7389 3.7966C12.8869 2.13833 10.5778 1.07703 8.11332 0.751274C7.60503 0.731541 7.11496 0.942147 6.77946 1.32449C6.30142 2.0537 6.13246 2.94287 6.30971 3.7966L1.26133 3.7966C1.05938 3.79648 0.865662 3.87665 0.72286 4.01946C0.580057 4.16226 0.499883 4.35598 0.5 4.55793V10.6486C0.499883 10.8505 0.580057 11.0443 0.72286 11.1871C0.865662 11.3299 1.05938 11.41 1.26133 11.4099H2.02266V33.4885C2.02255 33.6905 2.10272 33.8842 2.24552 34.027C2.38833 34.1698 2.58204 34.25 2.78399 34.2499H31.7146C31.9165 34.25 32.1103 34.1698 32.2531 34.027C32.3959 33.8842 32.476 33.6905 32.4759 33.4885L32.4759 11.4099H33.2373C33.4392 11.41 33.6329 11.3299 33.7757 11.1871C33.9185 11.0443 33.9987 10.8505 33.9986 10.6486V4.55793C33.9987 4.35598 33.9185 4.16226 33.7757 4.01946C33.6329 3.87665 33.4392 3.79648 33.2373 3.7966Z" fill="url(#paint0_linear_1_979)"/>
  <defs>
    <linearGradient id="paint0_linear_1_979" x1="1.86485" y1="2.87746" x2="1.86485" y2="33.6463" gradientUnits="userSpaceOnUse">
      <stop offset="1" stop-color="white" stop-opacity="0.101961"/>
      <stop stop-color="white" stop-opacity="0"/>
    </linearGradient>
  </defs>
</svg>